<?xml version="1.0" encoding="UTF-8" standalone="no"?>
<!-- Created with Inkscape (http://www.inkscape.org/) -->

<svg
   xmlns:dc="http://purl.org/dc/elements/1.1/"
   xmlns:cc="http://creativecommons.org/ns#"
   xmlns:rdf="http://www.w3.org/1999/02/22-rdf-syntax-ns#"
   xmlns:svg="http://www.w3.org/2000/svg"
   xmlns="http://www.w3.org/2000/svg"
   xmlns:sodipodi="http://sodipodi.sourceforge.net/DTD/sodipodi-0.dtd"
   xmlns:inkscape="http://www.inkscape.org/namespaces/inkscape"
   width="744.09448819"
   height="1052.3622047"
   id="svg2"
   version="1.1"
   inkscape:version="0.48.4 r9939"
   sodipodi:docname="drake.svg"
   inkscape:export-filename="/home/marksteve/Projects/Github/marksteve/drake/images/drake114.png"
   inkscape:export-xdpi="320.625"
   inkscape:export-ydpi="320.625">
  <defs
     id="defs4" />
  <sodipodi:namedview
     id="base"
     pagecolor="#ffffff"
     bordercolor="#666666"
     borderopacity="1.0"
     inkscape:pageopacity="0.0"
     inkscape:pageshadow="2"
     inkscape:zoom="7.7440972"
     inkscape:cx="374.05949"
     inkscape:cy="521.8448"
     inkscape:document-units="px"
     inkscape:current-layer="layer1"
     showgrid="true"
     inkscape:object-nodes="true"
     inkscape:object-paths="true"
     inkscape:snap-smooth-nodes="true"
     inkscape:window-width="1871"
     inkscape:window-height="1056"
     inkscape:window-x="49"
     inkscape:window-y="24"
     inkscape:window-maximized="1">
    <inkscape:grid
       type="xygrid"
       id="grid3900"
       empspacing="4"
       visible="true"
       enabled="true"
       snapvisiblegridlinesonly="true"
       dotted="false" />
  </sodipodi:namedview>
  <metadata
     id="metadata7">
    <rdf:RDF>
      <cc:Work
         rdf:about="">
        <dc:format>image/svg+xml</dc:format>
        <dc:type
           rdf:resource="http://purl.org/dc/dcmitype/StillImage" />
        <dc:title />
      </cc:Work>
    </rdf:RDF>
  </metadata>
  <g
     inkscape:label="Layer 1"
     inkscape:groupmode="layer"
     id="layer1">
    <rect
       style="fill:#ffffff;fill-opacity:1;stroke:none"
       id="rect2986"
       width="48"
       height="48"
       x="348.04724"
       y="502.18109" />
    <path
       style="fill:#444444;fill-opacity:1;stroke:none"
       d="m 356.04724,510.18109 0,32 32,0 0,-32 -32,0 z m 2,2 28,0 0,8 c -2.20914,0 -4,1.79086 -4,4 l -20,0 c 0,-2.20914 -1.79086,-4 -4,-4 l 0,-8 z m 4,14 6,0 0,8 c 0,1.10457 2.89543,3 4,3 1.10457,0 4,-1.89543 4,-3 l 0,-8 6,0 c 0,2.20914 1.79086,4 4,4 l 0,6 c -2.20914,0 -4,1.79086 -4,4 l -20,0 c 0,-2.20914 -1.79086,-4 -4,-4 l 0,-6 c 2.20914,0 4,-1.79086 4,-4 z m 10,1 c 1.10457,0 2,0.89543 2,2 0,0.7396 -0.4031,1.37271 -1,1.71875 l 0,3.28125 -2,0 0,-3.28125 c -0.5969,-0.34604 -1,-0.97915 -1,-1.71875 0,-1.10457 0.89543,-2 2,-2 z"
       id="rect4408"
       inkscape:connector-curvature="0"
       inkscape:export-filename="/home/marksteve/drake.png"
       inkscape:export-xdpi="90"
       inkscape:export-ydpi="90" />
  </g>
</svg>
